<svg width="287" height="92" viewBox="0 0 287 92" fill="none" xmlns="http://www.w3.org/2000/svg">
<path d="M112.899 77.4057V78.4469H109.912V79.6629H113.233L113.081 80.7041H108.612V75.3537H113.058V76.3949H109.912V77.4057H112.899ZM117.773 79.1005H119.08C119.232 79.5641 119.597 79.8681 120.486 79.8681C121.322 79.8681 121.558 79.6097 121.558 79.2677C121.558 78.8953 121.314 78.6901 120.19 78.5001C118.328 78.1809 117.993 77.5805 117.993 76.8585C117.993 75.7869 119.019 75.2473 120.288 75.2473C122.12 75.2473 122.622 76.1897 122.682 76.8129H121.383C121.307 76.5469 121.124 76.1897 120.243 76.1897C119.627 76.1897 119.316 76.3873 119.316 76.7369C119.316 77.0409 119.536 77.2005 120.539 77.3753C122.568 77.7401 122.888 78.3557 122.888 79.1309C122.888 80.0581 122.158 80.8105 120.364 80.8105C118.692 80.8105 117.94 80.0657 117.773 79.1005ZM129.184 80.7041V76.3873H127.299V75.3537H132.361V76.3873H130.484V80.7041H129.184ZM137.606 80.7041H136.177V79.1157H137.606V80.7041ZM150.661 80.7041H149.445V77.0257C149.194 77.1549 148.677 77.2537 148.457 77.2613V76.3569C149.103 76.2201 149.551 75.8477 149.749 75.6121H150.661V80.7041ZM155.768 79.4349H156.999C157.106 79.7085 157.334 79.8985 157.775 79.8985C158.588 79.8985 158.717 79.0777 158.755 78.5001C158.481 78.7737 158.124 78.9333 157.531 78.9333C156.391 78.9333 155.707 78.2493 155.707 77.3221C155.707 76.2885 156.46 75.5057 157.805 75.5057C159.173 75.5057 159.994 76.3569 159.994 77.9985C159.994 79.3209 159.568 80.8105 157.767 80.8105C156.376 80.8105 155.882 80.0049 155.768 79.4349ZM157.797 76.4481C157.205 76.4481 156.969 76.8509 156.969 77.2461C156.969 77.6641 157.227 78.0213 157.835 78.0213C158.36 78.0213 158.664 77.7553 158.664 77.3145C158.664 76.9345 158.459 76.4481 157.797 76.4481ZM166.846 80.8105C165.706 80.8105 164.71 80.3013 164.71 79.2525C164.71 78.6065 165.098 78.2417 165.576 78.0289C165.181 77.8085 164.93 77.4285 164.93 76.9573C164.93 76.0757 165.698 75.5057 166.899 75.5057C167.932 75.5057 168.822 75.9921 168.822 76.9725C168.822 77.4817 168.525 77.8161 168.153 77.9757C168.662 78.1581 169.05 78.5837 169.05 79.2449C169.05 80.3241 167.955 80.8105 166.846 80.8105ZM166.876 79.9365C167.332 79.9365 167.803 79.7465 167.803 79.2221C167.803 78.8117 167.56 78.4849 166.868 78.4849C166.177 78.4849 165.934 78.7889 165.934 79.1917C165.934 79.7085 166.42 79.9365 166.876 79.9365ZM166.876 76.3645C166.488 76.3645 166.139 76.5393 166.139 76.9649C166.139 77.2993 166.329 77.5881 166.899 77.5881C167.438 77.5881 167.621 77.3373 167.621 76.9725C167.621 76.5697 167.286 76.3645 166.876 76.3645ZM175.93 80.8105C174.79 80.8105 173.794 80.3013 173.794 79.2525C173.794 78.6065 174.182 78.2417 174.66 78.0289C174.265 77.8085 174.014 77.4285 174.014 76.9573C174.014 76.0757 174.782 75.5057 175.983 75.5057C177.016 75.5057 177.906 75.9921 177.906 76.9725C177.906 77.4817 177.609 77.8161 177.237 77.9757C177.746 78.1581 178.134 78.5837 178.134 79.2449C178.134 80.3241 177.039 80.8105 175.93 80.8105ZM175.96 79.9365C176.416 79.9365 176.887 79.7465 176.887 79.2221C176.887 78.8117 176.644 78.4849 175.952 78.4849C175.261 78.4849 175.018 78.7889 175.018 79.1917C175.018 79.7085 175.504 79.9365 175.96 79.9365ZM175.96 76.3645C175.572 76.3645 175.223 76.5393 175.223 76.9649C175.223 77.2993 175.413 77.5881 175.983 77.5881C176.522 77.5881 176.705 77.3373 176.705 76.9725C176.705 76.5697 176.37 76.3645 175.96 76.3645ZM182.976 78.2493H185.514V79.2829H182.976V78.2493ZM190.516 80.7041V75.3537H191.816V77.6945C192.583 76.9801 193.328 76.3037 194.347 75.3537H195.935L193.419 77.6565L196.072 80.7041H194.461L192.492 78.3709L191.816 78.9333V80.7041H190.516ZM204.038 79.4881H201.659L201.196 80.7041H199.858L202.009 75.3537H203.681L205.946 80.7041H204.54L204.038 79.4881ZM201.994 78.4469H203.681C203.179 77.2233 202.936 76.5925 202.807 76.1897H202.799C202.685 76.5849 202.397 77.3981 201.994 78.4469ZM215.798 77.6337V80.7041H214.855C214.825 80.5901 214.787 80.3469 214.764 80.1569C214.43 80.5597 213.966 80.8181 212.963 80.8181C211.23 80.8181 210.265 79.6249 210.265 78.0593C210.265 76.4937 211.291 75.2397 213.206 75.2397C214.924 75.2397 215.661 76.1745 215.805 76.9497H214.498C214.392 76.6761 214.08 76.2201 213.206 76.2201C212.104 76.2201 211.633 77.0029 211.633 77.9985C211.633 79.0473 212.127 79.8301 213.221 79.8301C214.126 79.8301 214.536 79.3589 214.536 78.7205V78.6369H213.236V77.6337H215.798ZM223.685 75.2397C225.554 75.2397 226.557 76.5469 226.557 78.0061C226.557 79.4957 225.569 80.8181 223.624 80.8181C221.807 80.8181 220.774 79.5793 220.774 78.0137C220.774 76.5393 221.868 75.2397 223.685 75.2397ZM223.647 76.2505C222.605 76.2505 222.142 77.0941 222.142 77.9985C222.142 79.0093 222.651 79.8073 223.7 79.8073C224.771 79.8073 225.189 78.8953 225.189 78.0213C225.189 77.0789 224.726 76.2505 223.647 76.2505ZM231.189 79.1005H232.496C232.648 79.5641 233.013 79.8681 233.902 79.8681C234.738 79.8681 234.974 79.6097 234.974 79.2677C234.974 78.8953 234.73 78.6901 233.606 78.5001C231.744 78.1809 231.409 77.5805 231.409 76.8585C231.409 75.7869 232.435 75.2473 233.704 75.2473C235.536 75.2473 236.038 76.1897 236.098 76.8129H234.799C234.723 76.5469 234.54 76.1897 233.659 76.1897C233.043 76.1897 232.732 76.3873 232.732 76.7369C232.732 77.0409 232.952 77.2005 233.955 77.3753C235.984 77.7401 236.304 78.3557 236.304 79.1309C236.304 80.0581 235.574 80.8105 233.78 80.8105C232.108 80.8105 231.356 80.0657 231.189 79.1005ZM241.362 80.7041V75.3537H242.661V77.3601H245.124V75.3537H246.423V80.7041H245.124V78.4013H242.661V80.7041H241.362ZM251.819 75.3537H253.118V80.7041H251.819V75.3537ZM263.445 80.7041V78.6521C263.445 77.7325 263.453 76.7673 263.483 76.1745H263.476C263.21 77.1625 262.7 78.7357 262.07 80.7041H260.93C260.443 78.9789 259.873 77.1929 259.592 76.1821H259.584C259.622 76.7977 259.676 77.8389 259.676 78.7509V80.7041H258.505V75.3537H260.382C260.914 77.0105 261.408 78.4621 261.568 79.1993H261.576C261.804 78.3481 262.29 76.9421 262.807 75.3537H264.699V80.7041H263.445ZM273.586 79.4881H271.207L270.743 80.7041H269.406L271.557 75.3537H273.229L275.493 80.7041H274.087L273.586 79.4881ZM271.541 78.4469H273.229C272.727 77.2233 272.484 76.5925 272.355 76.1897H272.347C272.233 76.5849 271.944 77.3981 271.541 78.4469Z" fill="#8C8C8C"/>
<path d="M254.396 14.0715H265.796V17.8715H258.576V24.9015H264.314V28.7015H258.576V36.8715H265.796V40.6715H254.396V14.0715Z" fill="#17191C"/>
<path d="M245.74 41.0517C243.739 41.0517 242.206 40.4816 241.142 39.3417C240.103 38.2016 239.584 36.593 239.584 34.5157V20.2276C239.584 18.1503 240.103 16.5417 241.142 15.4017C242.206 14.2617 243.739 13.6917 245.74 13.6917C247.741 13.6917 249.261 14.2617 250.3 15.4017C251.364 16.5417 251.896 18.1503 251.896 20.2276V23.0397H247.944V19.9617C247.944 18.315 247.247 17.4917 245.854 17.4917C244.461 17.4917 243.764 18.315 243.764 19.9617V34.8197C243.764 36.441 244.461 37.2517 245.854 37.2517C247.247 37.2517 247.944 36.441 247.944 34.8197V30.7537H251.896V34.5157C251.896 36.593 251.364 38.2016 250.3 39.3417C249.261 40.4816 247.741 41.0517 245.74 41.0517Z" fill="#17191C"/>
<path d="M232.539 14.0715H236.719V40.6715H232.539V14.0715Z" fill="#17191C"/>
<path d="M216.928 14.0715H221.146L223.882 34.7055H223.958L226.694 14.0715H230.532L226.504 40.6715H220.956L216.928 14.0715Z" fill="#17191C"/>
<path d="M202.852 14.0715H209.046C211.199 14.0715 212.77 14.5782 213.758 15.5915C214.746 16.5795 215.24 18.1122 215.24 20.1895V21.8235C215.24 24.5849 214.328 26.3329 212.504 27.0675V27.1435C213.517 27.4475 214.226 28.0682 214.632 29.0055C215.062 29.9429 215.278 31.1969 215.278 32.7675V37.4415C215.278 38.2015 215.303 38.8222 215.354 39.3035C215.404 39.7595 215.531 40.2155 215.734 40.6715H211.478C211.326 40.2409 211.224 39.8355 211.174 39.4555C211.123 39.0755 211.098 38.3915 211.098 37.4035V32.5395C211.098 31.3235 210.895 30.4749 210.49 29.9935C210.11 29.5122 209.438 29.2715 208.476 29.2715H207.032V40.6715H202.852V14.0715ZM208.552 25.4715C209.388 25.4715 210.008 25.2562 210.414 24.8255C210.844 24.3949 211.06 23.6729 211.06 22.6595V20.6075C211.06 19.6449 210.882 18.9482 210.528 18.5175C210.198 18.0869 209.666 17.8715 208.932 17.8715H207.032V25.4715H208.552Z" fill="#17191C"/>
<path d="M189.047 14.0715H200.447V17.8715H193.227V24.9015H198.965V28.7015H193.227V36.8715H200.447V40.6715H189.047V14.0715Z" fill="#17191C"/>
<path d="M180.343 41.0517C178.316 41.0517 176.783 40.4816 175.745 39.3417C174.706 38.1763 174.187 36.517 174.187 34.3637V32.8437H178.139V34.6677C178.139 36.3903 178.861 37.2517 180.305 37.2517C181.014 37.2517 181.546 37.049 181.901 36.6437C182.281 36.213 182.471 35.529 182.471 34.5917C182.471 33.477 182.217 32.5017 181.711 31.6657C181.204 30.8043 180.267 29.7783 178.899 28.5877C177.176 27.0677 175.973 25.6997 175.289 24.4837C174.605 23.2423 174.263 21.849 174.263 20.3037C174.263 18.201 174.795 16.5797 175.859 15.4397C176.923 14.2743 178.468 13.6917 180.495 13.6917C182.496 13.6917 184.003 14.2743 185.017 15.4397C186.055 16.5797 186.575 18.2263 186.575 20.3797V21.4817H182.623V20.1137C182.623 19.2017 182.445 18.543 182.091 18.1376C181.736 17.707 181.217 17.4917 180.533 17.4917C179.139 17.4917 178.443 18.3403 178.443 20.0377C178.443 21.0003 178.696 21.8997 179.203 22.7357C179.735 23.5717 180.685 24.585 182.053 25.7757C183.801 27.2957 185.004 28.6763 185.663 29.9177C186.321 31.159 186.651 32.6157 186.651 34.2877C186.651 36.4663 186.106 38.1383 185.017 39.3037C183.953 40.469 182.395 41.0517 180.343 41.0517Z" fill="#17191C"/>
<path d="M159.65 41.0517C157.598 41.0517 156.027 40.469 154.938 39.3037C153.848 38.1383 153.304 36.4917 153.304 34.3637V20.3797C153.304 18.2517 153.848 16.605 154.938 15.4397C156.027 14.2743 157.598 13.6917 159.65 13.6917C161.702 13.6917 163.272 14.2743 164.362 15.4397C165.451 16.605 165.996 18.2517 165.996 20.3797V34.3637C165.996 36.4917 165.451 38.1383 164.362 39.3037C163.272 40.469 161.702 41.0517 159.65 41.0517ZM159.65 37.2517C161.094 37.2517 161.816 36.3777 161.816 34.6297V20.1137C161.816 18.3657 161.094 17.4917 159.65 17.4917C158.206 17.4917 157.484 18.3657 157.484 20.1137V34.6297C157.484 36.3777 158.206 37.2517 159.65 37.2517Z" fill="#17191C"/>
<path d="M143.183 17.8715H138.812V14.0715H151.733V17.8715H147.363V40.6715H143.183V17.8715Z" fill="#17191C"/>
<path d="M130.706 41.0515C128.679 41.0515 127.134 40.4815 126.07 39.3415C125.006 38.1762 124.474 36.5169 124.474 34.3635V14.0715H128.654V34.6675C128.654 35.5795 128.831 36.2382 129.186 36.6435C129.566 37.0489 130.098 37.2515 130.782 37.2515C131.466 37.2515 131.985 37.0489 132.34 36.6435C132.72 36.2382 132.91 35.5795 132.91 34.6675V14.0715H136.938V34.3635C136.938 36.5169 136.406 38.1762 135.342 39.3415C134.278 40.4815 132.732 41.0515 130.706 41.0515Z" fill="#17191C"/>
<path d="M112.678 14.0715H118.34L122.672 40.6715H118.492L117.732 35.3895V35.4655H112.982L112.222 40.6715H108.346L112.678 14.0715ZM117.238 31.8555L115.376 18.7075H115.3L113.476 31.8555H117.238Z" fill="#17191C"/>
<path d="M161.969 44.5779H166.149V71.1779H161.969V44.5779Z" fill="#C1272D"/>
<path d="M146.012 44.5779H150.192V55.4079H154.676V44.5779H158.856V71.1779H154.676V59.2079H150.192V71.1779H146.012V44.5779Z" fill="#C1272D"/>
<path d="M137.307 71.558C135.281 71.558 133.748 70.988 132.709 69.848C131.671 68.6827 131.151 67.0233 131.151 64.87V63.35H135.103V65.174C135.103 66.8967 135.825 67.758 137.269 67.758C137.979 67.758 138.511 67.5553 138.865 67.15C139.245 66.7193 139.435 66.0353 139.435 65.098C139.435 63.9833 139.182 63.008 138.675 62.172C138.169 61.3107 137.231 60.2847 135.863 59.094C134.141 57.574 132.937 56.206 132.253 54.99C131.569 53.7487 131.227 52.3553 131.227 50.81C131.227 48.7073 131.759 47.086 132.823 45.946C133.887 44.7807 135.433 44.198 137.459 44.198C139.461 44.198 140.968 44.7807 141.981 45.946C143.02 47.086 143.539 48.7327 143.539 50.886V51.988H139.587V50.62C139.587 49.708 139.41 49.0493 139.055 48.644C138.701 48.2133 138.181 47.998 137.497 47.998C136.104 47.998 135.407 48.8467 135.407 50.544C135.407 51.5067 135.661 52.406 136.167 53.242C136.699 54.078 137.649 55.0913 139.017 56.282C140.765 57.802 141.969 59.1827 142.627 60.424C143.286 61.6653 143.615 63.122 143.615 64.794C143.615 66.9727 143.071 68.6447 141.981 69.81C140.917 70.9753 139.359 71.558 137.307 71.558Z" fill="#C1272D"/>
<path d="M124.562 44.5779H128.743V71.1779H124.562V44.5779Z" fill="#C1272D"/>
<path d="M108.346 44.5779H113.59L117.656 60.4999H117.732V44.5779H121.456V71.1779H117.162L112.146 51.7599H112.07V71.1779H108.346V44.5779Z" fill="#C1272D"/>
<path d="M41.0146 18.271C46.5454 18.3382 52.1187 18.1922 57.6257 18.2432L68.4094 36.534L59.9239 51.1788L49.2867 32.9663L27.2294 71.1086C21.8098 71.2685 15.998 71.0054 10.5068 71.1055C10.5068 71.1055 30.9886 35.5833 41.0146 18.271Z" fill="#C1272D"/>
<path d="M82.0622 18.3018L98.6988 18.3623L68.2942 71.1618L51.5456 71.1409L40.9414 52.5903L49.3297 38.3529L59.9515 56.5137L82.0622 18.3018Z" fill="#17191C"/>
</svg>
